<svg width="800" height="160" viewBox="0 0 800 160" fill="none" xmlns="http://www.w3.org/2000/svg">
  <style>
    .brand-en {
      font-family: "Inter", "Helvetica Neue", system-ui, sans-serif;
      font-weight: 600;
      font-size: 52px;
      fill: #374151;
      text-anchor: middle;
      dominant-baseline: middle;
      letter-spacing: 0.12em;
    }
  </style>

  <!-- Brand Name -->
  <!-- Brand Name (CN) rendered from ZhiMangXing-Regular.ttf, text converted to paths for GitHub compatibility -->
  <g transform="translate(240.000 85.000) scale(0.12000000 -0.12000000) translate(-935.426 -397.885)">
    <path d="M663.0 562Q673.0 542 661.5 533.5Q650.0 525 618.0 528Q556.0 535 464.0 500Q383.0 467 383.0 462Q383.0 457 418.5 444.5Q454.0 432 463.0 413Q471.0 401 468.5 392.0Q466.0 383 448.0 355L423.0 313L440.0 295Q458.0 278 463.0 278.0Q468.0 278 507.5 247.0Q547.0 216 553.5 216.0Q560.0 216 565.0 207Q571.0 198 603.5 173.5Q636.0 149 653.0 140Q673.0 129 687.0 121.0Q701.0 113 762.5 90.0Q824.0 67 838.0 48Q848.0 34 848.0 30.5Q848.0 27 838.0 19Q824.0 9 748.0 13.5Q672.0 18 648.0 30Q615.0 48 578.0 74.5Q541.0 101 527.0 118Q509.0 141 464.5 176.5Q420.0 212 406.0 227Q385.0 248 366.0 238.0Q347.0 228 292.0 170Q265.0 141 226.0 127.0Q187.0 113 170.0 104Q148.0 91 103.0 74.5Q58.0 58 54.0 59Q49.0 61 69.0 76Q79.0 83 90.0 91Q141.0 124 194.5 169.0Q248.0 214 269.0 241Q299.0 280 294.0 299Q292.0 305 287.0 305Q281.0 305 267.0 327.5Q253.0 350 253.0 358Q253.0 365 286.0 352Q317.0 341 332.0 345.0Q347.0 349 357.0 371Q366.0 389 365.5 395.0Q365.0 401 356.0 413Q343.0 432 331.5 432.5Q320.0 433 297.0 418Q270.0 400 249.0 396Q216.0 390 119.0 432Q98.0 441 98.0 444Q97.0 447 105.0 449Q119.0 455 148.0 455Q169.0 456 228.0 475.0Q287.0 494 338.0 517Q371.0 532 447.0 555.5Q523.0 579 540.0 588.5Q557.0 598 591.0 595Q623.0 592 639.0 584.5Q655.0 577 663.0 562ZM355.0 781Q371.0 778 397.0 762.0Q423.0 746 435.0 730Q457.0 704 426.0 675.0Q395.0 646 320.0 624Q284.0 612 273.0 608L271.0 609Q272.0 615 288.0 632Q331.0 680 340.0 705.5Q349.0 731 338.0 770Q334.0 781 336.5 783.0Q339.0 785 355.0 781Z" fill="#1F2937" />
    <path d="M1628.0 552Q1646.0 543 1651.0 529.0Q1656.0 515 1652.0 483Q1649.0 460 1650.5 452.0Q1652.0 444 1660.0 438Q1672.0 429 1701.5 395.0Q1731.0 361 1723.0 353Q1715.0 343 1706.5 344.5Q1698.0 346 1676.0 365Q1647.0 386 1631.5 381.0Q1616.0 376 1595.0 337Q1555.0 265 1492.0 256Q1458.0 253 1452.0 232Q1445.0 215 1470.0 213Q1472.0 213 1476.0 213Q1498.0 213 1595.0 235.5Q1692.0 258 1706.0 266Q1718.0 273 1751.5 265.5Q1785.0 258 1805.0 243Q1833.0 221 1800.0 210Q1778.0 205 1717.0 199Q1632.0 192 1626.0 189Q1619.0 183 1579.5 174.5Q1540.0 166 1511.0 162Q1472.0 158 1460.0 147Q1446.0 138 1434.0 138.5Q1422.0 139 1416.0 152Q1409.0 164 1409.0 284.0Q1409.0 404 1402.0 408.0Q1395.0 412 1399.0 419Q1402.0 423 1418.0 413.5Q1434.0 404 1451.5 388.5Q1469.0 373 1475.0 362Q1485.0 342 1481.0 312.0Q1477.0 282 1483.0 282Q1494.0 282 1527.0 329.0Q1560.0 376 1560.0 391Q1560.0 397 1554.0 402.5Q1548.0 408 1540.0 412Q1519.0 420 1508.0 432Q1500.0 442 1501.0 444.0Q1502.0 446 1517.0 450Q1573.0 461 1588.0 475.5Q1603.0 490 1599.0 529Q1596.0 555 1601.0 559.5Q1606.0 564 1628.0 552ZM1709.0 680Q1728.0 668 1680.0 631Q1656.0 612 1625.0 597Q1570.0 569 1522.5 565.0Q1475.0 561 1457.5 568.0Q1440.0 575 1450.0 575Q1464.0 576 1500.0 593.5Q1536.0 611 1568.0 633Q1607.0 658 1619.5 658.0Q1632.0 658 1652.0 672Q1687.0 693 1709.0 680ZM1285.0 744Q1299.0 739 1313.0 711.0Q1327.0 683 1327.0 660Q1327.0 633 1344.0 617.0Q1361.0 601 1361.0 594.0Q1361.0 587 1338.0 562Q1319.0 544 1316.5 533.0Q1314.0 522 1314.0 480Q1314.0 422 1314.5 405.0Q1315.0 388 1305.0 360.0Q1295.0 332 1291.0 200Q1286.0 99 1281.0 67.0Q1276.0 35 1262.0 35Q1254.0 35 1232.0 73.5Q1210.0 112 1212.0 121Q1215.0 128 1225.0 127Q1232.0 125 1235.0 133.0Q1238.0 141 1240.0 167Q1245.0 208 1245.0 245V283L1218.0 255Q1192.0 229 1165.0 189Q1153.0 169 1146.5 160.0Q1140.0 151 1134.0 146.0Q1128.0 141 1125.0 142.5Q1122.0 144 1117.0 150Q1108.0 162 1109.0 184.0Q1110.0 206 1119.0 214Q1131.0 223 1161.5 271.5Q1192.0 320 1222.0 373Q1251.0 430 1251.0 461.5Q1251.0 493 1245.0 497Q1239.0 501 1219.5 491.0Q1200.0 481 1187.0 466Q1156.0 432 1082.0 432Q1042.0 432 1042.0 439Q1041.0 445 1066.0 460Q1074.0 465 1085.0 469Q1125.0 490 1154.5 509.0Q1184.0 528 1189.0 528.0Q1194.0 528 1224.0 554L1254.0 580L1255.0 670Q1255.0 760 1263.5 760.0Q1272.0 760 1272.0 754.0Q1272.0 748 1285.0 744Z" fill="#1F2937" />
  </g>
  <text x="560" y="85" class="brand-en">WenShape</text>
</svg>
